<?xml version="1.0" encoding="iso-8859-1"?>
<!-- Uploaded to: SVG Repo, www.svgrepo.com, Generator: SVG Repo Mixer Tools -->
<svg height="800px" width="800px" version="1.1" id="Layer_1" xmlns="http://www.w3.org/2000/svg" xmlns:xlink="http://www.w3.org/1999/xlink" 
	 viewBox="0 0 512.003 512.003" xml:space="preserve">
<g>
	<path style="fill:#326CA0;" d="M0.001,256.003c0,141.383,114.617,256,256,256v-512C114.619,0.003,0.001,114.62,0.001,256.003"/>
	<path style="fill:#F3D55B;" d="M52.967,256.003c0,112.137,90.898,203.034,203.034,203.034V52.968
		C143.865,52.968,52.967,143.866,52.967,256.003"/>
	<path style="fill:#4482C3;" d="M256.001,0.003v512c141.383,0,256-114.617,256-256S397.384,0.003,256.001,0.003"/>
	<g>
		<path style="fill:#A4E869;" d="M270.455,42.77c15.598,0.088,55.543-24.576,63.161-19.553c30.87,20.339-7.053,92.398-30.667,68.414
			c-15.89-15.898-36.493-5.606-46.945,14.115v25.635c7.477-8.298,12.394-27.498,20.762-18.547
			c11.679,12.509,7.459,37.703-8.704,43.476c-2.816,1.006-7.062,0.353-12.059-1.183v77.859c0.856,0.962,1.792,1.88,2.895,2.728
			c18.432,14.151,10.266-19.544,23.711-14.415c19.553,7.574-3.363,27.057,27.26,12.906c35.919-16.384,22.422,9.163,33.421,25.865
			c20.621,31.179,71.3,61.105,97.863,19.897c6.268-9.71,2.251-86.572,41.666-35.01c25.044,32.75,16.446-38.7,19.836-57.459
			c-5.614-20.25-13.647-39.495-23.782-57.397c-0.026-0.044-0.044-0.079-0.071-0.115c-6.709-11.855-14.345-23.111-22.793-33.686
			c-0.079-0.106-0.159-0.203-0.247-0.309c-4.14-5.173-8.492-10.169-13.021-15.007c-0.238-0.247-0.477-0.494-0.715-0.75
			c-8.986-9.516-18.706-18.335-29.052-26.377c-0.433-0.344-0.856-0.689-1.289-1.024c-5.005-3.84-10.161-7.495-15.448-10.964
			c-0.618-0.406-1.236-0.794-1.854-1.192c-10.673-6.877-21.892-12.968-33.58-18.229c-0.839-0.371-1.668-0.768-2.507-1.13
			c-5.614-2.454-11.343-4.705-17.161-6.762c-0.98-0.344-1.969-0.662-2.957-0.998c-11.953-4.052-24.302-7.239-36.979-9.498
			c-1.139-0.203-2.277-0.424-3.416-0.609c-6.1-1.006-12.279-1.783-18.52-2.348c-1.192-0.106-2.392-0.185-3.584-0.274
			C269.175,0.335,262.633,0,256.004,0v44.871C260.559,43.573,265.317,42.743,270.455,42.77"/>
		<path style="fill:#A4E869;" d="M275.597,511.182c3.496-0.265,6.983-0.583,10.434-0.989c1.66-0.194,3.319-0.406,4.97-0.636
			c3.478-0.477,6.93-1.024,10.355-1.642c1.412-0.256,2.842-0.486,4.246-0.759c4.767-0.936,9.498-1.969,14.168-3.169l6.85-44.95
			l35.31-17.655l8.828-44.138h-61.793l-18.37-25.759L256,345.559v166.444c5.049,0,10.055-0.185,15.025-0.477
			C272.56,511.438,274.07,511.296,275.597,511.182"/>
	</g>
	<path style="fill:#E57E25;" d="M141.243,256.003c0,63.382,51.377,114.759,114.759,114.759V141.244
		C192.619,141.244,141.243,192.621,141.243,256.003"/>
	<path style="fill:#D75A4A;" d="M194.208,256.003c0,34.127,27.666,61.793,61.793,61.793V194.21
		C221.874,194.21,194.208,221.875,194.208,256.003"/>
</g>
</svg>